<svg width="96" height="96" fill="none" xml:space="preserve" xmlns="http://www.w3.org/2000/svg"><path style="fill:#e20714;stroke-width:.5;fill-opacity:1" d="M0 0h96v96H0z"/><path fill-rule="evenodd" clip-rule="evenodd" d="M37.062 27.303h-3.93v2.939s-1.675-3.446-5.792-3.446c-6.001 0-6.013 7.653-6.013 7.653l.023 27.992s-.337 7.569 6.35 7.569c2.93 0 5.082-2.841 5.082-2.841l1.117 2.345 3.919-.012.012-17.218 1.651.024.012-4.51h-9.27v4.51l1.862-.012V62.84s.07 2.648-2.605 2.648c-2.687 0-2.687-2.938-2.687-2.938V34.57s.116-3.397 2.733-3.397c3.163 0 3.594 4.147 3.594 7.364l.012 3.905h3.93zm35.553 37.955 2.058.012v4.244l-9.339-.012v-4.22l1.64-.024-.488-3.881H61.66l-.5 3.881 1.557.024-.011 4.22-7.734.012v-4.232l1.768-.012 4.768-37.954 6.245-.013zm-8.537-23.82-1.756 14.474h3.466zm-16.06-9.903H46.18l2.907 23.192 2.861-23.192-2.128-.012-.012-4.208h8.397v4.22h-1.768L51.6 69.515h-6.153l-4.896-37.98-2.047-.012v-4.208h9.513z" fill="#fff" style="stroke-width:.666826"/></svg>