<svg width="300" height="300" xmlns="http://www.w3.org/2000/svg"><defs><clipPath clipPathUnits="userSpaceOnUse" id="a"><path d="M0 2167.92h2382.48V0H0Z" transform="translate(-1194.221 -2043.656)"/></clipPath><clipPath clipPathUnits="userSpaceOnUse" id="b"><path d="M0 2167.92h2382.48V0H0Z" transform="translate(-316.011 -1654.027)"/></clipPath><clipPath clipPathUnits="userSpaceOnUse" id="c"><path d="M0 2167.92h2382.48V0H0Z" transform="translate(-1340.634 -1406.372)"/></clipPath><clipPath clipPathUnits="userSpaceOnUse" id="d"><path d="M0 2167.92h2382.48V0H0Z" transform="translate(-1200.448 -129.265)"/></clipPath><clipPath clipPathUnits="userSpaceOnUse" id="e"><path d="M0 2167.92h2382.48V0H0Z" transform="translate(-971.903 -521.318)"/></clipPath><clipPath clipPathUnits="userSpaceOnUse" id="f"><path d="M0 2167.92h2382.48V0H0Z" transform="translate(-965.203 -1187.713)"/></clipPath><clipPath clipPathUnits="userSpaceOnUse" id="g"><path d="M0 2167.92h2382.48V0H0Z" transform="translate(-1610.41 -1122.228)"/></clipPath><clipPath clipPathUnits="userSpaceOnUse" id="h"><path d="M0 2167.92h2382.48V0H0Z" transform="translate(-1895.14 -1121.374)"/></clipPath><clipPath clipPathUnits="userSpaceOnUse" id="i"><path d="M0 2167.92h2382.48V0H0Z" transform="translate(-1533.99 -1148.12)"/></clipPath><clipPath clipPathUnits="userSpaceOnUse" id="j"><path d="M0 2167.92h2382.48V0H0Z" transform="translate(-791.223 -1147.533)"/></clipPath><clipPath clipPathUnits="userSpaceOnUse" id="k"><path d="M0 2167.92h2382.48V0H0Z" transform="translate(-502.85 -1121.983)"/></clipPath><clipPath clipPathUnits="userSpaceOnUse" id="l"><path d="M0 2167.92h2382.48V0H0Z" transform="translate(-458.675 -1183.918)"/></clipPath><clipPath clipPathUnits="userSpaceOnUse" id="m"><path d="M0 2167.92h2382.48V0H0Z" transform="translate(-1982.951 -1064.31)"/></clipPath><clipPath clipPathUnits="userSpaceOnUse" id="n"><path d="M0 2167.92h2382.48V0H0Z" transform="translate(-1118.309 -1064.145)"/></clipPath><clipPath clipPathUnits="userSpaceOnUse" id="o"><path d="M0 2167.92h2382.48V0H0Z" transform="translate(-872.81 -838.217)"/></clipPath><clipPath clipPathUnits="userSpaceOnUse" id="p"><path d="M0 2167.92h2382.48V0H0Z" transform="translate(-1334.93 -1100.988)"/></clipPath><clipPath clipPathUnits="userSpaceOnUse" id="q"><path d="M0 2167.92h2382.48V0H0Z" transform="translate(-1729.956 -1122.255)"/></clipPath></defs><path d="M0 0c43.512-.125 87.024-.245 130.536-.378 31.354-.095 62.709-.226 94.064-.307 45.433-.118 90.866-.195 136.299-.31 18.877-.048 37.753-.136 56.629-.229 19.835-.097 39.67-.23 59.505-.331 37.751-.193 75.502-.424 113.254-.548 58.55-.194 117.101-.311 175.652-.462 38.074-.098 76.148-.192 114.222-.303 19.515-.057 39.032-.137 58.548-.227 18.875-.088 37.75-.197 56.626-.309 33.269-.199 66.538-.401 99.808-.629 1.9-.013 3.8-.259 5.696-.426.788-.07 1.417-1.488.993-2.3-1.327-2.545-2.623-5.111-4.053-7.599-13.066-22.723-26.191-45.411-39.233-68.147-20.836-36.325-41.593-72.695-62.434-109.016-18.933-32.997-37.949-65.947-56.902-98.932-24.05-41.854-48.09-83.714-72.103-125.588-16.221-28.286-32.355-56.622-48.59-84.9-14.165-24.672-28.446-49.278-42.619-73.947-10.033-17.462-19.968-34.981-29.951-52.471a692.215 692.215 0 0 0-4.326-7.465c-1.064-1.81-2.688-2.634-4.77-2.634-1.6 0-3.199-.052-4.799-.052-47.354-.003-94.708-.004-142.062 0-1.599 0-3.199.026-4.798.081-2.601.091-3.603 1.522-2.467 3.639a448.674 448.674 0 0 0 6.045 10.904c12.401 21.63 24.824 43.247 37.236 64.871 18.777 32.712 37.541 65.432 56.331 98.138 20.541 35.755 41.128 71.483 61.653 107.248 19.093 33.271 38.101 66.592 57.202 99.859 19.102 33.269 38.277 66.495 57.403 99.749 1.593 2.77 3.092 5.595 4.565 8.431.862 1.66-.107 3.347-1.933 3.367-10.237.113-20.474.241-30.711.265-33.275.079-66.55.092-99.826.172-39.353.095-78.706.221-118.06.354-38.392.131-76.785.277-115.178.436-38.712.16-77.423.36-116.135.512-37.754.147-75.507.257-113.261.38-39.353.127-78.707.249-118.06.376-38.073.123-76.146.251-114.22.377-38.713.127-77.426.238-116.139.385-39.033.149-78.065.34-117.097.5-37.753.155-75.505.304-113.258.436-39.033.137-78.066.257-117.099.371-38.074.112-76.148.19-114.222.314-39.032.128-78.065.277-117.098.449-38.071.168-76.143.402-114.214.561-39.033.164-78.067.286-117.1.402-37.434.112-74.868.182-112.302.295-6.718.02-13.436.147-20.154.242-1.711.024-3.134.798-4.065 2.164-1.439 2.11-2.75 4.312-4.032 6.524-7.053 12.171-14.072 24.362-21.118 36.537-16.334 28.224-32.683 56.439-49.004 84.67-1.114 1.929-2.058 3.956-3.054 5.952-.293.585.698 2.138 1.383 2.194 1.586.131 3.174.34 4.76.335 26.555-.088 53.11-.204 79.665-.314 2.239-.01 4.479-.038 6.719-.042 33.275-.066 66.55-.11 99.825-.198 39.033-.103 78.066-.241 117.099-.369 37.753-.123 75.506-.245 113.26-.382 39.352-.142 78.705-.296 118.058-.455 38.072-.153 76.144-.332 114.217-.475 39.033-.147 78.066-.27 117.1-.394 36.154-.115 72.308-.219 108.462-.325 40.633-.119 81.266-.222 121.899-.357C-82.217.604-62.701.511-43.186.376c14.395-.1 28.79-.289 43.185-.438L0 0" style="fill:#fff;fill-opacity:1;fill-rule:nonzero;stroke:none" transform="matrix(.13598 0 0 -.13598 150.154 16.897)" clip-path="url(#a)"/><path d="M0 0c-1.466 2.345-2.878 4.465-4.152 6.666-23.068 39.831-46.124 79.67-69.155 119.523-.947 1.639-1.639 3.427-2.409 5.163-.285.644.635 2.133 1.335 2.18 2.542.17 5.086.436 7.63.433 16.313-.022 32.627-.122 48.94-.164 49.263-.126 98.525-.234 147.787-.355 16.954-.042 33.908-.101 50.862-.158 21.751-.073 43.503-.139 65.254-.233 18.232-.08 36.464-.212 54.696-.292 39.344-.173 78.688-.338 118.033-.484 36.786-.137 73.572-.26 110.358-.363 39.986-.111 79.972-.186 119.958-.288a44524.5 44524.5 0 0 0 56.619-.187c19.832-.076 39.664-.154 59.496-.256 18.871-.097 37.742-.249 56.613-.337 38.705-.181 77.409-.373 116.113-.494 57.26-.18 114.52-.296 171.78-.451 39.025-.105 78.051-.221 117.076-.351 19.192-.065 38.384-.162 57.576-.265 19.191-.104 38.382-.257 57.573-.349 38.704-.184 77.408-.343 116.111-.511 22.712-.099 45.423-.196 68.135-.299 1.599-.007 3.198-.038 4.795-.104 1.778-.074 2.498-1.656 1.561-3.481-.876-1.705-1.777-3.4-2.732-5.061-12.423-21.613-24.867-43.213-37.287-64.827a84723.606 84723.606 0 0 1-42.484-74.01c-12.239-21.351-24.419-42.736-36.679-64.075-13.691-23.83-27.466-47.612-41.161-71.44-13.058-22.722-26.049-45.483-39.097-68.211-4.611-8.032-9.304-16.018-13.721-23.615-2.851-1.635-5.459-1.16-7.966-1.164-23.353-.041-46.705-.026-70.058-.026-22.073 0-44.146-.012-66.218.015-2.868.003-5.736.191-8.602.32-.81.036-1.55 1.405-1.164 2.178 1.138 2.282 2.226 4.595 3.491 6.806 15.878 27.739 31.789 55.459 47.68 83.192 11.759 20.521 23.471 41.07 35.256 61.577 13.694 23.831 27.449 47.627 41.167 71.444 2.392 4.152 4.775 8.311 7.096 12.503 1.391 2.511.294 4.108-2.798 4.221-.32.012-.64.021-.959.025-7.037.077-14.073.199-21.11.223-33.267.114-66.535.181-99.802.304-39.024.143-78.048.339-117.072.488-37.746.143-75.492.268-113.238.377-39.346.114-78.692.182-118.038.301-37.745.115-75.49.248-113.235.416-39.343.175-78.686.417-118.028.604-33.587.159-67.174.315-100.76.414-43.505.128-87.01.182-130.515.296-38.064.099-76.128.226-114.192.36-19.192.068-38.384.169-57.575.272-19.511.105-39.022.252-58.533.343-38.704.18-77.408.331-116.112.505-4.478.02-8.957.071-13.433.191C3.137-.469 1.574-.178 0 0" style="fill:#fff;fill-opacity:1;fill-rule:nonzero;stroke:none" transform="matrix(.13598 0 0 -.13598 30.735 69.88)" clip-path="url(#b)"/><path d="M0 0c-2.391-.068-5.253-.219-8.115-.22-41.915-.015-83.83-.01-125.745-.01-22.697 1.196-45.416.617-68.126.779-10.876.078-21.751.276-32.627.321-47.03.19-94.061.339-141.092.512-23.036.084-46.071.223-69.107.276-33.276.076-66.551.067-99.826.148-39.033.095-78.067.238-117.1.38-19.195.069-38.391.174-57.586.276-39.351.207-78.701.424-118.051.635-12.797.068-25.594.128-38.392.198-1.599.008-3.198.053-4.797.071-2.075.024-3.664.853-4.733 2.683-2.901 4.97-5.861 9.906-8.745 14.885a113130.236 113130.236 0 0 0-55.241 95.47c-1.435 2.484-2.684 5.077-3.972 7.643-.534 1.064.425 2.872 1.533 2.944 1.913.124 3.83.272 5.745.264 30.713-.125 61.426-.273 92.14-.415 1.6-.007 3.199-.011 4.799-.013 33.275-.05 66.551-.078 99.826-.154 39.353-.089 78.707-.209 118.06-.334 37.753-.119 75.506-.25 113.259-.4 39.352-.156 78.703-.348 118.055-.512 35.193-.147 70.386-.292 105.58-.411 41.912-.142 83.825-.252 125.738-.384 37.434-.117 74.868-.246 112.301-.369 39.033-.128 78.067-.248 117.1-.401 2.546-.01 5.094-.246 7.637-.438 1.179-.089 2.148-1.854 1.61-2.904-1.167-2.274-2.326-4.555-3.595-6.772a65117.972 65117.972 0 0 0-38.622-67.392C20.275 33.048 12.61 19.756 4.955 6.458 3.684 4.25 2.635 1.876 0 0" style="fill:#fff;fill-opacity:1;fill-rule:nonzero;stroke:none" transform="matrix(.13598 0 0 -.13598 170.063 103.555)" clip-path="url(#c)"/><path d="M0 0c-.746.393-1.834.616-2.306 1.279-1.478 2.077-2.772 4.29-4.051 6.501-14.571 25.173-29.124 50.356-43.687 75.534-8.801 15.217-17.619 30.424-26.409 45.647-1.117 1.934-2.221 3.891-3.099 5.937-.337.788-.265 1.943.044 2.774.553 1.483 1.382 2.873 2.175 4.256 12.396 21.629 24.805 43.25 37.212 64.873 10.976 19.129 21.954 38.256 32.929 57.386 25.447 44.357 50.878 88.724 76.347 133.069C80.299 416.659 91.548 436 102.697 455.4c9.873 17.18 19.656 34.412 29.511 51.604 11.603 20.243 23.243 40.466 34.863 60.7 14.325 24.944 28.638 49.894 42.969 74.835 11.465 19.952 22.949 39.892 34.421 59.84.478.83.963 1.66 1.384 2.519 1.549 3.159 3.907 4.875 7.585 4.595 1.908-.145 3.837-.006 5.756-.006 45.426.001 90.852.011 136.278-.021 3.179-.002 6.358-.296 9.536-.487.703-.042 1.446-1.575 1.099-2.27-1.139-2.281-2.219-4.597-3.486-6.805-18.282-31.887-36.601-63.753-54.893-95.634-20.518-35.761-41.008-71.539-61.532-107.299-10.5-18.294-21.065-36.552-31.565-54.847-11.613-20.234-23.169-40.501-34.78-60.737-15.27-26.612-30.572-53.206-45.855-79.81-19.582-34.088-39.159-68.18-58.738-102.27-18.147-31.596-36.3-63.189-54.441-94.789C42.19 72.085 23.585 39.646 4.97 7.212 3.547 4.733 2.472 2.015 0 0" style="fill:#fff;fill-opacity:1;fill-rule:nonzero;stroke:none" transform="matrix(.13598 0 0 -.13598 151 277.217)" clip-path="url(#d)"/><path d="M0 0c1.564 2.973 2.953 5.834 4.534 8.584 14.651 25.486 29.37 50.933 44.004 76.429 19.564 34.085 39.044 68.219 58.607 102.305 20.199 35.194 40.457 70.355 60.684 105.534 4.141 7.202 8.239 14.429 12.405 21.618 1.018 1.757 2.623 2.769 4.704 2.829 2.556.075 5.114.13 7.671.13 44.133.008 88.265.012 132.398-.009 2.867-.001 5.736-.188 8.601-.337 1.167-.06 2.04-1.777 1.47-2.911-1.29-2.563-2.545-5.149-3.972-7.635-15.745-27.432-31.523-54.844-47.287-82.264-20.862-36.288-41.734-72.57-62.572-108.871-14.475-25.217-28.876-50.477-43.356-75.691-15.754-27.43-31.586-54.816-47.339-82.247-15.753-27.431-31.44-54.9-47.19-82.333-1.422-2.477-3.068-4.827-4.647-7.211-.474-.715-1.968-.639-2.447.085-1.057 1.598-2.166 3.167-3.125 4.823-15.683 27.106-31.337 54.228-47.018 81.336-7.679 13.275-15.414 26.519-23.086 39.8C1.938-4.131 1.052-2.103 0 0" style="fill:#fff;fill-opacity:1;fill-rule:nonzero;stroke:none" transform="matrix(.13598 0 0 -.13598 119.923 223.905)" clip-path="url(#e)"/><path d="M0 0c-2.337-3.218-2.648-6.345-3.114-9.442a16269.635 16269.635 0 0 0-6.049-39.814c-5.651-36.958-11.311-73.914-16.966-110.872-1.933-12.634-3.847-25.27-5.799-37.901-.292-1.89-.589-3.806-1.191-5.608-.249-.748-1.242-1.333-2.015-1.795-.509-.304-1.229-.352-1.855-.353-9.595-.029-19.189-.035-28.784-.03-.634 0-1.266.142-1.9.21-1.251.135-2.496 1.123-2.723 2.293-.547 2.82-1.108 5.641-1.549 8.479-3.191 20.521-6.384 41.041-9.512 61.571-2.167 14.217-4.194 28.456-6.351 42.674-2.828 18.636-5.722 37.261-8.588 55.891-1.747 11.348-3.496 22.695-5.176 33.598-.986 1.01-1.401.819-1.429-.182-.163-5.749-.412-11.499-.415-17.249-.03-57.535-.017-115.07-.018-172.605 0-2.877.028-5.755-.023-8.631-.093-5.369-.708-6.035-6.113-6.072-8.955-.061-17.911-.034-26.867.007a15.03 15.03 0 0 0-3.774.513c-.522.14-1.231.829-1.273 1.319-.27 3.173-.519 6.361-.521 9.543-.029 49.864-.021 99.728-.021 149.592 0 35.48-.006 70.96.012 106.44.002 3.19.145 6.381.271 9.569.042 1.047 1.447 2.555 2.401 2.667 1.267.149 2.539.347 3.81.349 16.952.023 33.904.023 50.856-.002 1.27-.002 2.57-.109 3.797-.409.887-.216 1.815-.694 2.066-1.769.289-1.237.61-2.473.791-3.727 2.512-17.396 5.002-34.794 7.499-52.191 2.905-20.243 5.85-40.48 8.703-60.73 1.694-12.024 3.175-24.078 4.875-36.102 1.744-12.337 3.631-24.653 5.479-36.975.139-.928.462-1.829.717-2.809.599.23 1.385.302 1.496.614.533 1.486 1.048 3.014 1.271 4.57C-44.13-88.484-40.278-61.598-36.52-34.7c2.874 20.571 5.577 41.166 8.435 61.739 1.845 13.29 3.818 26.563 5.772 39.838.232 1.573.63 3.133 1.082 4.66.384 1.296 1.327 2.217 2.683 2.391 1.579.204 3.186.251 4.781.253 15.993.017 31.986.012 47.979.009.959 0 1.919-.007 2.878-.045 3.906-.159 4.996-1.259 5.101-5.276.066-2.556.042-5.114.042-7.671.002-84.705.018-169.409-.014-254.114-.006-14.469 1.476-12.851-12.692-12.949-7.356-.052-14.713-.025-22.07.011-1.59.008-3.219.039-4.754.393-.783.18-1.64.973-2.02 1.716-.409.8-.382 1.864-.398 2.815a567.445 567.445 0 0 0-.058 9.588C.225-132.848.23-74.354.216-15.859.214-10.781.081-5.702 0 0" style="fill:#fff;fill-opacity:1;fill-rule:nonzero;stroke:none" transform="matrix(.13598 0 0 -.13598 119.012 133.289)" clip-path="url(#f)"/><path d="M0 0c0-29.383-.004-58.765.007-88.148.001-2.872.059-5.746.155-8.616.061-1.79 1.244-3.15 2.88-3.162 7.664-.059 15.33-.169 22.991-.028 7.831.145 15.266 5.495 17.725 14.945.639 2.455.945 5.03 1.105 7.569.241 3.821.296 7.659.297 11.49.018 44.074.014 88.147.005 132.221 0 2.874.008 5.753-.166 8.619-.156 2.544-.381 5.11-.886 7.604-2.054 10.15-8.849 16.1-19.213 16.982-.637.054-1.277.089-1.915.088-6.072-.01-12.144-.021-18.215-.057-.631-.004-1.261-.17-1.893-.255-1.129-.15-2.447-1.379-2.511-2.515-.163-2.861-.348-5.726-.35-8.589C-.009 58.765 0 29.383 0 0m-44.589-.533c0 42.479-.005 84.958.011 127.437.001 3.191.117 6.383.256 9.571.062 1.449 1.668 2.876 3.264 2.964 2.23.123 4.465.23 6.698.232 18.217.018 36.435.039 54.653-.004 9.292-.021 18.512-.763 27.548-3.138 17.692-4.65 29.669-15.689 36.244-32.601 3.263-8.394 4.921-17.175 5.16-26.196.084-3.192.144-6.386.144-9.578.009-45.673.033-91.346-.026-137.019-.008-5.741-.129-11.519-.782-17.213-1.173-10.232-3.88-20.054-9.526-28.85-6.054-9.433-14.221-16.314-24.741-20.313-7.519-2.858-15.273-4.639-23.337-4.911-3.194-.108-6.389-.221-9.584-.225-18.857-.022-37.714-.021-56.571.001-2.23.003-4.463.155-6.691.292-1.152.071-2.287 1.318-2.403 2.555-.119 1.268-.262 2.538-.283 3.81-.048 2.874-.033 5.749-.033 8.623L-44.589-.533" style="fill:#fff;fill-opacity:1;fill-rule:nonzero;stroke:none" transform="matrix(.13598 0 0 -.13598 206.747 142.194)" clip-path="url(#g)"/><path d="M0 0c0 23.019.011 46.037-.01 69.056-.004 4.155-.041 8.315-.256 12.462a33.722 33.722 0 0 1-1.012 6.61c-2.667 10.362-9.481 15.651-19.915 16.223-13.959.766-22.495-6.174-24.423-20.07-.524-3.779-.499-7.652-.501-11.482-.03-48.275-.024-96.55-.009-144.825.001-3.194.069-6.394.267-9.582.219-3.533 1.11-6.925 2.531-10.184 2.636-6.048 7.337-9.546 13.643-10.951a30.47 30.47 0 0 1 12.397-.2c7.134 1.356 12.278 5.216 14.854 12.123 1.117 2.994 2.079 6.052 2.154 9.302.089 3.835.263 7.669.267 11.503C.012-46.677-.001-23.338 0 0m44.381.384c0-24.288.053-48.576-.039-72.864-.021-5.421-.213-10.883-.91-16.25-1.374-10.572-4.688-20.506-10.78-29.417-6.716-9.824-15.622-16.796-26.789-20.827-6.329-2.286-12.841-3.832-19.603-4.275-10.582-.694-21.089-.544-31.439 2.123-4.659 1.2-9.22 2.714-13.44 5.01-12.871 7.004-21.992 17.281-26.876 31.2-3.203 9.126-4.948 18.502-5.078 28.173a484.148 484.148 0 0 0-.032 6.711c-.002 46.978.018 93.956-.02 140.934-.006 8.009.353 15.963 1.982 23.834 2.171 10.487 6.104 20.129 13.002 28.478 4.967 6.014 10.799 10.836 17.911 14.104 14.35 6.593 29.428 8.327 44.972 6.619 6.035-.663 11.985-1.851 17.768-3.861 15.385-5.347 26.075-15.714 32.843-30.333 3.254-7.029 5.067-14.475 5.827-22.144.471-4.76.659-9.565.671-14.351.065-24.288.03-48.576.03-72.864" style="fill:#fff;fill-opacity:1;fill-rule:nonzero;stroke:none" transform="matrix(.13598 0 0 -.13598 245.465 142.31)" clip-path="url(#h)"/><path d="M0 0c0-33.247-.005-66.495.004-99.742.002-6.402-.315-12.752-1.452-19.09-1.023-5.705-2.519-11.268-4.739-16.557-6.112-14.561-16.442-24.948-31.441-30.406-6.035-2.197-12.237-3.639-18.669-4.126-10.907-.824-21.753-.725-32.382 2.187-8.083 2.215-15.624 5.568-22.146 11.016-6.512 5.438-11.447 12.025-14.809 19.767a81.824 81.824 0 0 0-6.726 28.787c-.25 5.105-.282 10.226-.284 15.339-.017 64.896-.012 129.793-.01 194.689 0 2.238-.018 4.477.047 6.713.114 3.935 1.208 5.118 5.212 5.138 11.515.056 23.031.039 34.547-.037 3.304-.021 4.523-1.357 4.623-4.747.095-3.195.082-6.393.083-9.589.004-64.257.002-128.514.004-192.771 0-3.197-.169-6.408.077-9.587.32-4.132.797-8.271 1.527-12.349 1.324-7.405 6.153-11.744 13.118-13.786 4.996-1.465 10.146-1.538 15.183-.183 6.622 1.782 11.258 5.885 13.442 12.491 1.313 3.973 1.885 8.091 1.999 12.263.08 2.875.038 5.754.038 8.631.001 65.216-.017 130.432.014 195.648.007 15.506-1.396 14.014 13.735 14.086 7.358.035 14.716.025 22.073-.029 1.586-.012 3.211-.139 4.738-.526.831-.21 1.733-.904 1.793-2.021.153-2.862.381-5.726.385-8.59.031-23.976.018-47.953.018-71.929C.002 20.46.002 10.23 0 0" style="fill:#fff;fill-opacity:1;fill-rule:nonzero;stroke:none" transform="matrix(.13598 0 0 -.13598 196.356 138.673)" clip-path="url(#i)"/><path d="M0 0c0-32.607-.016-65.214.012-97.821.006-7.37-.415-14.687-1.695-21.959-1.343-7.635-3.961-14.758-7.691-21.562-5.6-10.216-13.816-17.511-24.338-22.209a64.958 64.958 0 0 0-11.793-3.944c-13.926-3.212-27.936-3.23-41.843.058-20.723 4.901-34.211 17.785-40.904 37.876-2.647 7.947-3.617 16.206-4.152 24.517-.206 3.186-.205 6.389-.206 9.584-.01 65.854-.01 131.708-.001 197.561 0 2.876.06 5.753.174 8.626.075 1.917 1.718 3.365 3.829 3.508.957.065 1.917.121 2.876.122 10.236.008 20.473.014 30.709-.007 1.274-.002 2.55-.145 3.822-.254 1.209-.103 2.482-1.27 2.625-2.38.121-.945.298-1.892.314-2.841.05-2.876.044-5.753.044-8.63.001-65.215 0-130.429.004-195.643 0-3.197.011-6.394.059-9.59.059-3.868.838-7.631 1.958-11.305 2.171-7.117 7.262-11.066 14.325-12.662 4.105-.927 8.26-.862 12.394-.084 6.829 1.285 11.59 5.183 14.2 11.58 1.453 3.564 2.354 7.307 2.449 11.185.087 3.515.111 7.032.111 10.548.006 65.534 0 131.068.017 196.602.001 3.508.148 7.018.285 10.525.045 1.17 1.324 2.454 2.432 2.603.948.128 1.9.322 2.851.324 10.556.019 21.112.01 31.668-.003.636-.001 1.272-.102 1.908-.163 1.704-.163 3.14-1.426 3.298-2.931.1-.951.207-1.906.219-2.86.038-2.877.04-5.754.04-8.631C.002 66.493.001 33.247 0 0" style="fill:#fff;fill-opacity:1;fill-rule:nonzero;stroke:none" transform="matrix(.13598 0 0 -.13598 95.354 138.753)" clip-path="url(#j)"/><path d="M0 0c0 25.566.052 51.132-.034 76.697-.024 7.082.855 14.035 2.278 20.924 2.177 10.535 6.747 19.909 14.027 27.924 6.406 7.051 14.236 11.825 23.296 14.556 16.65 5.02 33.376 5.221 50.107.371 15.287-4.432 26.359-13.868 33.449-28.105 4.048-8.129 6.359-16.744 7.15-25.706 1.096-12.428.7-24.905.475-37.365-.011-.615-.165-1.289-.462-1.819-.295-.526-.783-1.135-1.313-1.298-1.203-.37-2.484-.672-3.735-.679-10.233-.052-20.466-.032-30.699-.025-.638 0-1.276.069-1.914.118-2.223.17-3.694 1.473-3.774 3.499-.113 2.871-.16 5.746-.176 8.62-.042 7.67-.034 15.34-.081 23.009-.024 3.868-.688 7.597-2.223 11.201-2.582 6.061-7.071 9.756-13.431 11.192-4.756 1.073-9.504.973-14.221-.396-5.972-1.732-9.92-5.648-12.215-11.285-1.21-2.97-1.911-6.098-1.991-9.331-.087-3.513-.226-7.027-.227-10.541-.015-48.256-.016-96.513.004-144.769.002-3.512.126-7.029.322-10.536.217-3.884 1.397-7.514 3.245-10.935 2.429-4.495 6.285-7.205 11.102-8.458 4.697-1.222 9.507-1.329 14.263-.229 6.336 1.466 10.878 5.049 13.304 11.25 1.545 3.951 2.125 8.005 2.127 12.191.007 10.546-.012 21.092.029 31.638.012 3.189.16 6.38.299 9.567.05 1.152 1.334 2.34 2.525 2.47.949.105 1.901.261 2.852.263 10.233.021 20.467.022 30.7.005.952-.001 1.905-.151 2.856-.247 1.208-.123 2.483-1.284 2.632-2.37.086-.631.27-1.261.267-1.89-.093-14.698.054-29.403-.4-44.09-.329-10.661-3.274-20.798-8.386-30.22-6.004-11.066-14.788-19.149-26.41-24.036a65.172 65.172 0 0 0-19.456-4.862c-7.676-.699-15.332-.683-22.985.127-7.707.816-15.084 2.965-21.973 6.439-13.54 6.828-22.369 17.799-27.075 32.096C1.618-97.408.365-89.511.08-81.49c-.181 5.109-.186 10.225-.19 15.337C-.129-44.102-.118-22.051-.118 0Z" style="fill:#fff;fill-opacity:1;fill-rule:nonzero;stroke:none" transform="matrix(.13598 0 0 -.13598 56.141 142.227)" clip-path="url(#k)"/><path d="M0 0c-5.756 0-11.512-.023-17.268.01-3.139.017-3.919 1.82-4.007 4.262-.115 3.192-.142 6.39-.098 9.585.059 4.19-.617 8.275-1.549 12.334-.651 2.836-1.793 5.455-3.519 7.809-2.131 2.908-4.828 5.014-8.256 6.28-4.317 1.596-8.759 2.06-13.219 1.301-8.522-1.451-14.351-5.38-16.963-15.938-2.196-8.881-1.422-17.775 1.297-26.486 1.923-6.158 4.757-11.927 8.816-16.904 4.436-5.44 9.176-10.662 14.105-15.662 4.029-4.088 8.615-7.62 12.804-11.558 7.219-6.785 14.53-13.491 21.415-20.604C.916-73.173 7.136-81.702 11.949-91.183c4.683-9.225 7.406-19.063 8.602-29.279 1.418-12.122 1.275-24.241-1.233-36.255-1.378-6.604-3.545-12.916-6.78-18.857-7.033-12.913-17.358-21.908-31.379-26.594-5.484-1.833-11.062-3.131-16.838-3.555-10.57-.776-21.121-.858-31.432 1.975-4.293 1.179-8.569 2.654-12.584 4.559-12.462 5.909-20.621 15.868-25.706 28.472-2.523 6.253-3.91 12.805-4.858 19.482-1.354 9.544-1.195 19.106-.776 28.685.054 1.235 1.26 2.476 2.395 2.617.949.118 1.902.295 2.853.298 10.233.021 20.467.021 30.7.002.951-.002 1.903-.169 2.852-.273 1.099-.121 2.465-1.407 2.534-2.501.161-2.543.297-5.09.369-7.637.125-4.471.147-8.945.305-13.415.113-3.211.829-6.309 1.882-9.36 2.56-7.416 7.96-11.31 15.438-12.692 3.811-.704 7.639-.676 11.45.023 7.185 1.319 12.355 5.29 14.727 12.208a43.207 43.207 0 0 1 2.227 11.23c.869 14.143-2.105 27.362-10.757 38.879a149.233 149.233 0 0 1-10.486 12.446c-6.783 7.229-14.23 13.774-21.653 20.343-8.869 7.849-17.164 16.278-24.452 25.639-5.117 6.573-9.622 13.508-12.898 21.233-4.954 11.682-6.938 23.911-6.884 36.48.036 8.314.886 16.578 2.979 24.686 1.532 5.938 3.821 11.556 7.06 16.715 6.838 10.89 16.046 18.988 28.439 23.1 17.188 5.704 34.476 6.094 51.896 1.043 14.681-4.257 25.094-13.541 32.18-26.865 3.333-6.267 5.538-12.928 6.774-19.876 1.628-9.152 2.153-18.402 1.677-27.695-.138-2.682-1.477-4.022-4.265-4.057C10.872-.046 5.436.002 0 0" style="fill:#fff;fill-opacity:1;fill-rule:nonzero;stroke:none" transform="matrix(.13598 0 0 -.13598 50.134 133.805)" clip-path="url(#l)"/><path d="M0 0c4.796 0 9.592.02 14.387-.013 1.27-.009 2.542-.166 3.81-.286 1.142-.108 2.48-1.351 2.562-2.459.165-2.221.329-4.447.371-6.673.085-4.471.019-8.946.146-13.416.118-4.187.985-8.226 2.742-12.068 2.894-6.328 7.84-9.885 14.63-11.023 3.497-.586 7.001-.632 10.503-.081 7.975 1.254 13.47 5.558 15.997 13.304a42.168 42.168 0 0 1 2.06 11.276c.752 17.16-5.023 31.929-16.144 44.822-6.281 7.282-13.492 13.604-20.486 20.152-2.565 2.401-5.214 4.716-7.883 7.003C13.674 58.267 5.839 67.11-1.516 76.385c-11.05 13.935-17.067 29.82-18.12 47.583-.666 11.224-.179 22.344 2.577 33.308 1.732 6.893 4.518 13.278 8.552 19.139 6.937 10.083 16.118 17.253 27.784 20.985 16.558 5.297 33.257 5.647 50.066.998 16.943-4.686 28.207-15.629 35.151-31.424 2.325-5.289 3.869-10.837 4.823-16.514 1.434-8.528 1.901-17.14 1.617-25.785-.031-.945-.097-1.984-.51-2.793-.391-.768-1.164-1.498-1.948-1.866-.825-.389-1.861-.445-2.804-.447-10.55-.023-21.1-.016-31.65.013-.95.002-1.97.041-2.831.382-.838.33-1.783.895-1.836 1.999-.183 3.816-.438 7.634-.422 11.45.018 4.187-.341 8.314-1.504 12.321-.617 2.128-1.448 4.24-2.506 6.183-2.23 4.097-5.694 6.774-10.143 8.268-4.362 1.466-8.798 1.675-13.253.876-8.885-1.594-14.13-7.19-15.997-15.763-2.304-10.58-1.261-20.985 2.967-30.984 2.372-5.611 5.412-10.823 9.445-15.473 6.712-7.742 13.879-15.044 21.615-21.726 8.478-7.322 16.667-14.917 24.3-23.103 7.214-7.735 13.677-15.994 18.354-25.598 4.099-8.417 6.951-17.171 8.186-26.419 2.137-15.992 1.995-31.896-2.999-47.421-4.575-14.223-12.983-25.527-26.208-32.92-5.335-2.981-11.047-4.982-17.029-6.221-13.984-2.897-27.959-2.879-41.81.627-9.763 2.472-18.484 7.021-25.582 14.361-5.409 5.594-9.476 12.001-12.142 19.326-2.977 8.175-4.67 16.636-5.193 25.263-.425 7.003-.191 14.048-.167 21.073.008 2.24 1.409 3.656 3.475 3.777 1.594.093 3.193.134 4.79.141C-8.312.02-4.156.008 0 .008Z" style="fill:#fff;fill-opacity:1;fill-rule:nonzero;stroke:none" transform="matrix(.13598 0 0 -.13598 257.406 150.07)" clip-path="url(#m)"/><path d="M0 0c6.072 0 12.144.027 18.216-.019 1.507-.011 2.981-1.55 3.08-3.123.139-2.227.22-4.461.25-6.693.056-4.153-.01-8.308.1-12.459.102-3.848.742-7.603 2.086-11.254 2.567-6.973 7.656-10.778 14.792-12.126a32.003 32.003 0 0 1 12.393.089c6.371 1.29 11.046 4.746 13.684 10.805 2.077 4.771 2.887 9.793 2.98 14.935.237 13.16-3.158 25.263-10.738 36.118-3.488 4.994-7.362 9.673-11.758 13.878-6.232 5.962-12.575 11.809-18.922 17.65-8.234 7.576-16.364 15.251-23.491 23.907-2.436 2.958-4.876 5.938-7.015 9.11-7.792 11.558-12.972 24.102-14.675 38.075-1.605 13.175-.928 26.131 2.304 38.985 1.495 5.948 4.016 11.445 7.221 16.636 8.753 14.18 21.649 22.231 37.81 25.434 11.742 2.328 23.478 2.477 35.246.146 6.326-1.253 12.361-3.351 18.014-6.371a45.197 45.197 0 0 0 13.349-10.782c6.291-7.455 10.671-15.887 13.177-25.288 2.997-11.241 3.379-22.71 2.796-34.246-.104-2.062-1.608-3.549-3.756-3.553-11.504-.021-23.008.016-34.512.076-1.544.008-3.036 1.524-3.107 3.077-.13 2.87-.256 5.746-.215 8.617a61.314 61.314 0 0 1-1.29 13.332c-2.037 9.845-9.475 16.138-19.525 16.631-.957.047-1.919.058-2.876.021-10.675-.407-17.238-5.806-19.858-16.096-2.37-9.308-1.343-18.394 1.536-27.368 2.274-7.089 6.087-13.321 10.839-19.037 7.176-8.63 15.203-16.388 23.745-23.641 9.514-8.077 18.587-16.61 26.642-26.165a135.927 135.927 0 0 0 7.029-9.097c8.468-11.966 13.574-25.231 15.428-39.796 1.547-12.148 1.378-24.232-.854-36.262-2.198-11.852-6.908-22.489-15.128-31.532-7.571-8.33-16.952-13.48-27.636-16.379-10.615-2.881-21.467-3.029-32.373-2.211-4.492.337-8.88 1.176-13.195 2.359-18.3 5.018-30.582 16.637-37.217 34.292-2.599 6.917-4.254 14.114-4.665 21.473-.445 7.965-.379 15.961-.432 23.944-.018 2.709 1.363 3.964 4.216 3.996C-10.871.15-5.435.106 0 .106V0" style="fill:#fff;fill-opacity:1;fill-rule:nonzero;stroke:none" transform="matrix(.13598 0 0 -.13598 139.831 150.092)" clip-path="url(#n)"/><path d="M0 0c2.334.183 4.536.49 6.739.506 8.317.061 16.634.029 24.951.03 32.947 0 65.894.01 98.841-.017 3.183-.003 6.365-.235 9.548-.366.757-.031 1.571-1.505 1.206-2.205-1.623-3.113-3.188-6.261-4.933-9.305-17.641-30.775-35.313-61.534-52.976-92.297L33.25-190.958c-.477-.831-.925-1.679-1.422-2.498-1.303-2.147-3.221-2.351-4.48-.453-1.235 1.863-2.476 3.729-3.595 5.662C3.27-152.833-17.196-117.41-37.663-81.988c-.959 1.661-1.805 3.394-2.854 4.995-1.615 2.465-1.288 4.753.15 7.162 2.129 3.567 4.115 7.219 6.181 10.824 9.856 17.191 19.71 34.385 29.591 51.562C-3.174-4.976-1.605-2.592 0 0" style="fill:#fff;fill-opacity:1;fill-rule:nonzero;stroke:none" transform="matrix(.13598 0 0 -.13598 106.448 180.813)" clip-path="url(#o)"/><path d="M0 0v-104.463c0-2.237.017-4.473-.01-6.709-.095-7.886-.101-7.929-8.027-7.964-9.91-.043-19.82-.032-29.73.024-1.572.008-3.163.283-4.702.627-.508.113-1.067.759-1.271 1.288a8.47 8.47 0 0 0-.555 2.771c-.086 3.193-.093 6.388-.093 9.582-.005 70.601 0 141.202-.014 211.802 0 3.511-.105 7.023-.238 10.531-.057 1.511-1.596 2.983-3.159 3.071-2.548.142-5.101.256-7.653.266-9.59.037-19.181-.002-28.771.061-1.574.011-3.168.303-4.708.657-.529.122-1.039.762-1.346 1.288a3.823 3.823 0 0 0-.497 1.833c-.022 10.859-.03 21.718.022 32.577.01 1.943 1.698 3.442 3.786 3.535 2.234.1 4.473.139 6.71.139 38.68.008 77.361.008 116.042 0 2.236 0 4.475-.033 6.709-.138 2.635-.124 4.04-1.511 4.059-4.288.068-10.221.045-20.443.053-30.664 0-.319-.026-.639-.05-.957-.162-2.149-1.547-3.727-3.511-3.824a164.65 164.65 0 0 0-7.665-.197c-8.951-.024-17.902.009-26.852-.03-1.907-.009-3.815-.204-5.718-.369-1.071-.093-2.309-1.453-2.455-2.598-.121-.947-.296-1.896-.312-2.846-.049-2.874-.043-5.75-.043-8.625C-.001 70.92 0 35.46 0 0" style="fill:#fff;fill-opacity:1;fill-rule:nonzero;stroke:none" transform="matrix(.13598 0 0 -.13598 169.288 145.082)" clip-path="url(#p)"/><path d="M0 0c0 41.837-.001 83.674.002 125.511 0 2.874-.024 5.75.048 8.622.105 4.13 1.174 5.403 4.949 5.426 11.504.071 23.008.032 34.513.022.634-.001 1.268-.133 1.902-.201 1.203-.131 2.479-1.278 2.628-2.388.127-.943.308-1.888.326-2.835.053-2.874.048-5.748.048-8.623.002-83.993.002-167.987-.001-251.98-.001-3.193-.002-6.388-.08-9.579-.075-3.08-1.095-4.285-3.821-4.293-12.142-.036-24.286-.012-36.429.017-.621.001-1.36.079-1.835.415-.724.513-1.689 1.218-1.805 1.958-.343 2.192-.42 4.441-.427 6.668C-.016-118.804 0-106.349 0-93.894V0" style="fill:#fff;fill-opacity:1;fill-rule:nonzero;stroke:none" transform="matrix(.13598 0 0 -.13598 223.003 142.19)" clip-path="url(#q)"/></svg>
