<svg width="96" height="96" fill="none" xml:space="preserve" xmlns="http://www.w3.org/2000/svg"><path style="fill:#fff;stroke-width:.5;fill-opacity:1" d="M0 0v96h96V0H0zm27.34 26.797c4.117 0 5.793 3.445 5.793 3.445v-2.94h3.93v15.14h-3.93l-.014-3.905c0-3.217-.43-7.363-3.594-7.363-2.617 0-2.732 3.396-2.732 3.396v27.98s0 2.938 2.687 2.938c2.675 0 2.606-2.648 2.606-2.648V52.297l-1.863.012v-4.51h9.27l-.013 4.51-1.65-.026-.012 17.219-3.92.012-1.117-2.344s-2.152 2.84-5.082 2.84c-6.687 0-6.35-7.569-6.35-7.569l-.023-27.992s.013-7.652 6.014-7.652zm40.414.506 4.861 37.955 2.059.012v4.244l-9.34-.012v-4.22l1.64-.024-.488-3.881H61.66l-.5 3.88 1.557.024-.012 4.221-7.732.012V65.28l1.767-.011 4.768-37.954 6.246-.013zm-29.25.011h9.514v4.221H46.18l2.908 23.192 2.86-23.192-2.128-.012-.011-4.209h8.396v4.221h-1.767L51.6 69.515h-6.153l-4.896-37.98-2.047-.012v-4.209zm25.574 14.123-1.756 14.475h3.465l-1.709-14.474z"/></svg>