<svg xml:space="preserve" width="263.2" height="110.88" xmlns="http://www.w3.org/2000/svg"><g style="fill:#fff;fill-opacity:1"><path d="m774.82 618.727-63.8-185.172h-37.918l-63.805 185.172h34.324l48.442-140.614 48.433 140.614h34.324M797.008 633.949l28.23 2.77h4.153V436.316h-32.383v197.633M935.414 494.441c-15.086 0-26.851.286-34.879-1.66-8.023-1.933-12.453-6.082-12.453-14.527 0-11.77 8.441-18.274 20.203-18.274 4.016 0 10.797.829 16.613 4.434 5.809 3.594 10.516 9.824 10.516 21.309zm38.613-60.886c-5.398 0-10.66.828-16.054 3.183-5.399 2.207-10.793 5.946-16.196 11.895-5.672-4.289-10.656-8.028-16.605-10.656-6.09-2.762-12.871-4.422-22.145-4.422-6.64 0-13.98.965-21.035 3.457-7.058 2.492-13.562 6.64-18.406 13.426-4.848 6.777-7.887 16.195-7.887 28.917 0 12.598 3.039 22.704 10.789 29.485 7.754 6.773 20.348 10.515 39.586 10.515 7.75 0 16.742 0 29.477-1.101v7.195c0 9.961-3.184 16.879-8.305 21.035-5.117 4.149-12.043 5.813-19.789 5.813-6.09 0-12.871-1.109-19.512-2.906-6.644-1.801-13.289-4.153-18.961-6.922l-7.613 28.234c15.082 7.195 34.32 12.18 52.453 12.18 14.25 0 27.539-3.047 37.504-10.52 9.828-7.476 16.055-19.238 16.055-36.816v-53.418c0-6.789 2.219-11.633 6.09-14.953 3.738-3.321 8.992-5.254 15.222-6.504l-14.668-27.117M1076.74 494.441c-15.08 0-26.84.286-34.87-1.66-8.03-1.933-12.45-6.082-12.45-14.527 0-11.77 8.44-18.274 20.2-18.274 4.02 0 10.79.829 16.61 4.434 5.8 3.594 10.51 9.824 10.51 21.309zm38.61-60.886c-5.39 0-10.64.828-16.05 3.183-5.39 2.207-10.78 5.946-16.19 11.895-5.67-4.289-10.65-8.028-16.61-10.656-6.09-2.762-12.86-4.422-22.14-4.422-6.64 0-13.97.965-21.03 3.457-7.07 2.492-13.57 6.64-18.41 13.426-4.85 6.777-7.893 16.195-7.893 28.917 0 12.598 3.043 22.704 10.803 29.485 7.74 6.773 20.34 10.515 39.58 10.515 7.75 0 16.75 0 29.47-1.101v7.195c0 9.961-3.17 16.879-8.31 21.035-5.11 4.149-12.03 5.813-19.78 5.813-6.09 0-12.87-1.109-19.52-2.906-6.64-1.801-13.28-4.153-18.95-6.922l-7.62 28.234c15.09 7.195 34.33 12.18 52.46 12.18 14.25 0 27.54-3.047 37.5-10.52 9.82-7.476 16.05-19.238 16.05-36.816v-53.418c0-6.789 2.23-11.633 6.09-14.953 3.74-3.321 9.01-5.254 15.22-6.504l-14.67-27.117M1149.43 579.977h27.41l3.18-11.211c13.28 8.855 29.77 13.976 45.82 13.976 13.69 0 26.84-3.738 36.39-12.039 9.55-8.305 15.78-21.176 15.78-39.031v-95.356h-32.38v85.813c0 10.652-3.87 18.125-9.83 22.832-5.96 4.707-14.26 6.641-22.69 6.641-11.08 0-22.43-3.321-31.29-8.86V436.316h-32.39v143.661M1400.66 549.527c-8.16 2.075-16.46 3.047-22.96 3.047-12.33 0-22.7-3.601-29.91-11.074-7.18-7.477-11.34-18.539-11.34-33.492 0-10.938 3.04-21.59 8.86-29.754 5.82-8.164 14.4-13.566 25.88-13.566 9.83 0 20.76 3.464 29.47 8.859zm32.39-113.211h-24.5l-5.8 10.793c-11.07-8.3-22.71-13.554-38.61-13.554-20.62 0-36 8.3-46.09 21.035-10.1 12.734-15.08 29.89-15.08 47.605 0 27.121 8.16 47.332 21.72 60.758 13.57 13.285 32.65 19.789 54.8 19.789 6.51 0 13.58-.414 21.17-1.387v52.594l27.41 2.77h4.98V436.316M1551.97 521.711c-.97 10.516-4.43 17.992-9.41 22.973-4.98 4.843-11.35 6.918-17.58 6.918-6.64 0-13.42-2.211-18.96-7.055-5.67-4.988-10.24-12.457-12.04-22.836zm22.27-48.164v-31.418c-6.51-3.184-13.42-5.117-20.47-6.504-7.21-1.387-14.26-2.07-20.35-2.07-19.92 0-38.34 6.218-51.9 18.543-13.57 12.316-22.14 31.132-22.14 56.047 0 24.218 8.02 42.769 20.21 55.496 12.03 12.597 28.22 19.101 44.41 19.101 4.57 0 12.74-.554 21.18-3.461 8.45-2.902 17.71-8.441 24.64-17.992 6.92-9.547 11.76-23.66 11.76-43.594v-21.593h-87.19c2.62-11.622 8.58-19.512 16.33-24.493 7.62-4.976 16.88-7.058 26.16-7.058 12.18 0 25.05 3.457 36.13 9.414l1.23-.418M1690.8 544.266c-8.16 4.984-16.19 7.199-24.35 7.199-10.51 0-20.2-3.875-28.93-10.52V436.316h-32.38v143.661h27.4l3.32-11.762c9.96 8.441 22.15 14.527 36.54 14.527 3.87 0 9.28-.277 14.53-1.242 5.26-.973 10.37-2.355 14.12-4.43l-10.25-32.804M1792.29 521.711c-.98 10.516-4.44 17.992-9.42 22.973-4.98 4.843-11.35 6.918-17.58 6.918-6.64 0-13.41-2.211-18.96-7.055-5.67-4.988-10.24-12.457-12.03-22.836zm22.26-48.164v-31.418c-6.5-3.184-13.42-5.117-20.47-6.504-7.2-1.387-14.26-2.07-20.35-2.07-19.92 0-38.34 6.218-51.89 18.543-13.58 12.316-22.15 31.132-22.15 56.047 0 24.218 8.02 42.769 20.21 55.496 12.03 12.597 28.23 19.101 44.42 19.101 4.57 0 12.73-.554 21.17-3.461 8.46-2.902 17.71-8.441 24.65-17.992 6.91-9.547 11.75-23.66 11.75-43.594v-21.593h-87.18c2.61-11.622 8.57-19.512 16.33-24.493 7.61-4.976 16.87-7.058 26.15-7.058 12.19 0 25.06 3.457 36.13 9.414l1.23-.418M1845.45 579.977h27.4l3.19-11.211c13.28 8.855 29.76 13.976 45.82 13.976 13.69 0 26.83-3.738 36.38-12.039 9.55-8.305 15.78-21.176 15.78-39.031v-95.356h-32.38v85.813c0 10.652-3.87 18.125-9.82 22.832-5.96 4.707-14.26 6.641-22.7 6.641-11.07 0-22.42-3.321-31.29-8.86V436.316h-32.38v143.661M725.668 309.863l-28.051-81.57h-16.269l-27.973 81.57h12.57l23.575-68.605 23.578 68.605h12.57M785.215 277.012c-.078 6.289-.942 12.019-3.379 16.269-2.438 4.239-6.441 6.836-12.809 6.836-6.207 0-11.156-2.441-14.929-6.523-3.77-4.082-6.207-9.903-7.227-16.582zm11.949-11.004h-50.848c.633-9.426 3.934-16.418 8.723-21.059 4.797-4.636 11.238-6.914 18.231-6.914 7.312 0 14.539 2.043 22.003 5.813l.239-.078v-11.231c-8.492-4.172-15.871-5.82-23.418-5.82-10.137 0-19.649 3.379-26.563 10.449-6.914 7.078-11.312 17.84-11.312 32.93 0 11.629 2.672 22.078 8.41 29.472 5.652 7.383 14.379 11.864 26.633 11.864 8.41 0 14.222-2.129 18.39-5.508 4.086-3.379 6.524-8.004 7.86-13.125 1.336-5.106 1.652-10.684 1.652-15.789v-11.004M818.906 309.863h8.172l2.828-9.277c6.051 6.992 12.496 10.848 20.039 10.848 1.965 0 4.403-.243 6.836-.711a30.172 30.172 0 0 0 6.68-2.121l-4.242-10.926c-3.067 1.496-7.856 2.519-11.235 2.519-7.156 0-12.734-4.562-16.898-10.929v-60.973h-12.18v81.57M890.875 240.391c5.34-2.121 10.605-2.508 15.949-2.508 8.172 0 15.168 3.062 20.196 8.719 4.953 5.574 7.859 13.75 7.859 24.043 0 8.093-1.809 15.402-5.816 20.75-4.008 5.343-10.137 8.722-18.86 8.722-8.172 0-15.164-2.91-19.328-8.879zm-12.184 100.117 11.399 1.57h.785v-37.801c5.73 4.403 12.488 7.157 20.98 7.157 10.684 0 19.489-4.559 25.618-12.032 6.125-7.539 9.59-17.984 9.59-29.851 0-11.555-3.223-22.246-9.985-30.02-6.758-7.859-17.055-12.812-31.117-12.812-10.141 0-19.727 2.676-27.27 5.82v107.969M1010.62 277.012c-.08 6.289-.95 12.019-3.38 16.269-2.45 4.239-6.45 6.836-12.814 6.836-6.211 0-11.164-2.441-14.934-6.523-3.769-4.082-6.211-9.903-7.226-16.582zm11.94-11.004h-50.849c.633-9.426 3.934-16.418 8.727-21.059 4.796-4.636 11.234-6.914 18.234-6.914 7.308 0 14.528 2.043 21.998 5.813l.24-.078v-11.231c-8.49-4.172-15.88-5.82-23.422-5.82-10.133 0-19.644 3.379-26.558 10.449-6.914 7.078-11.321 17.84-11.321 32.93 0 11.629 2.676 22.078 8.414 29.472 5.661 7.383 14.379 11.864 26.633 11.864 8.414 0 14.234-2.129 18.394-5.508 4.09-3.379 6.52-8.004 7.86-13.125 1.34-5.106 1.65-10.684 1.65-15.789v-11.004M1084.93 277.012c-.08 6.289-.94 12.019-3.38 16.269-2.43 4.239-6.44 6.836-12.8 6.836-6.21 0-11.16-2.441-14.93-6.523-3.78-4.082-6.21-9.903-7.24-16.582zm11.95-11.004h-50.84c.62-9.426 3.92-16.418 8.72-21.059 4.79-4.636 11.24-6.914 18.23-6.914 7.3 0 14.54 2.043 22 5.813l.23-.078v-11.231c-8.48-4.172-15.86-5.82-23.41-5.82-10.14 0-19.64 3.379-26.56 10.449-6.92 7.078-11.31 17.84-11.31 32.93 0 11.629 2.66 22.078 8.4 29.472 5.66 7.383 14.38 11.864 26.64 11.864 8.41 0 14.22-2.129 18.39-5.508 4.09-3.379 6.53-8.004 7.85-13.125 1.34-5.106 1.66-10.684 1.66-15.789v-11.004M1114.53 340.508l11.32 1.57h.79V228.293h-12.11v112.215M1201.67 297.051c-5.5 2.121-10.84 3.222-15.95 3.222-8.17 0-15.16-2.597-20.11-7.785-5.03-5.183-7.94-12.957-7.94-23.261 0-8.086 1.8-15.868 5.81-21.598 4.01-5.746 10.14-9.516 18.86-9.516 8.18 0 15.01 2.832 19.33 8.879zm12.19-68.758h-7.71l-2.52 7.223c-6.2-5.34-13.51-8.719-22.94-8.719-10.69 0-19.49 4.949-25.62 12.891-6.12 7.851-9.58 18.699-9.58 30.566 0 11.551 3.3 21.766 10.06 29.226 6.75 7.473 16.97 11.954 31.03 11.954 5.34 0 10.3-.711 15.09-1.649v30.723l11.4 1.57h.79V228.293M1241.34 309.863h12.1v-81.57h-12.1zm-2.36 22.235c0 2.277.94 4.406 2.51 5.968a8.413 8.413 0 0 0 5.9 2.442c2.28 0 4.4-.949 5.97-2.442 1.57-1.562 2.52-3.691 2.52-5.968 0-2.274-.95-4.325-2.52-5.821-1.57-1.562-3.69-2.507-5.97-2.507s-4.4.945-5.9 2.507c-1.57 1.496-2.51 3.547-2.51 5.821M1281.02 309.863h8.16l2.28-7.55c3.38 2.199 7.47 4.484 11.79 6.21 4.32 1.731 8.8 2.911 12.65 2.911 7.78 0 14.93-1.969 20.27-6.836 5.28-4.871 8.58-12.578 8.58-24.129v-52.176h-12.19v51.473c0 7.851-2.04 12.957-5.19 16.101-3.22 3.145-7.69 4.328-12.64 4.328-3.78 0-7.63-1.023-11.32-2.519-3.69-1.496-7.07-3.457-10.22-5.34v-64.043h-12.17v81.57M1394.06 300.586c-6.04 0-10.68-2.277-13.83-5.496a16.663 16.663 0 0 1-4.71-11.555c0-4.082 1.65-8.332 4.79-11.555 3.15-3.222 7.79-5.417 14-5.417 6.04 0 10.6 2.195 13.67 5.417 3.06 3.149 4.55 7.305 4.55 11.399 0 4.082-1.57 8.406-4.63 11.711-3.14 3.297-7.78 5.496-13.84 5.496zm-12.88-65.695c-4.4-5.028-7.23-11.395-7.23-17.051 0-4.793 1.33-8.961 4.48-11.863 3.14-2.911 8.09-4.637 15.32-4.637 8.17 0 15.17 2.672 20.2 6.519 4.95 3.774 7.78 8.801 7.78 13.75 0 6.059-3.54 9.356-9.2 11.243-5.73 1.804-13.59 2.039-22.16 2.039zm20.04 10.449c11.23 0 19.48-2.586 24.91-6.832 5.34-4.242 8.01-10.063 8.01-16.117 0-8.875-5.42-16.817-13.36-22.469-7.93-5.734-18.47-9.192-28.6-9.192-9.35 0-16.9 2.903-22.08 7.618-5.19 4.64-8.1 11.164-8.1 18.39 0 6.602 3.54 14.461 9.75 20.742-2.2 1.258-3.85 3.387-4.95 5.821-1.11 2.429-1.73 5.027-1.73 7.304 0 4.403 2.04 9.434 5.9 14.231-2.21 2.273-3.94 5.418-5.03 8.875-1.11 3.379-1.73 7.07-1.73 10.527 0 7.782 3.06 14.539 8.41 19.414 5.34 4.871 12.88 7.782 21.76 7.782 6.05 0 11.39-1.336 15.8-3.778 3.45 2.598 7.38 4.715 11 6.133 3.61 1.414 7.07 2.117 9.82 2.117l3.62-10.293c-4.33-.703-9.98-2.508-15.33-5.886 3.06-4.407 4.71-9.512 4.71-15.168 0-7.782-3.14-14.93-8.48-20.196-5.42-5.273-13.05-8.57-21.93-8.57-5.73 0-10.76 1.414-15.08 3.543-1.81-2.285-2.76-4.563-2.76-6.68 0-4.093 3.55-7.316 10.06-7.316h15.41M1605.42 309.863l-25.86-81.57h-15.09l-18.14 62.078-18.16-62.078h-15.16l-25.78 81.57h11.78l21.54-68.136 20.19 68.136h11.16l20.2-68.136 21.61 68.136h11.71M1665.03 277.012c-.08 6.289-.94 12.019-3.38 16.269-2.43 4.239-6.44 6.836-12.8 6.836-6.21 0-11.16-2.441-14.93-6.523-3.78-4.082-6.21-9.903-7.24-16.582zm11.94-11.004h-50.84c.63-9.426 3.93-16.418 8.72-21.059 4.8-4.636 11.24-6.914 18.24-6.914 7.3 0 14.54 2.043 22 5.813l.23-.078v-11.231c-8.48-4.172-15.87-5.82-23.42-5.82-10.13 0-19.63 3.379-26.55 10.449-6.92 7.078-11.32 17.84-11.32 32.93 0 11.629 2.67 22.078 8.41 29.472 5.66 7.383 14.38 11.864 26.64 11.864 8.41 0 14.22-2.129 18.39-5.508 4.08-3.379 6.52-8.004 7.85-13.125 1.34-5.106 1.65-10.684 1.65-15.789v-11.004M1698.73 309.863h8.17l2.83-9.277c6.05 6.992 12.5 10.848 20.04 10.848 1.97 0 4.4-.243 6.84-.711a30.428 30.428 0 0 0 6.68-2.121l-4.25-10.926c-3.06 1.496-7.86 2.519-11.24 2.519-7.15 0-12.72-4.562-16.89-10.929v-60.973h-12.18v81.57M1815.24 226.719c-4.08.234-8.87 2.832-13.67 6.601-4.79 3.692-9.82 8.723-14.22 13.828-4.48 5.028-8.56 10.215-11.47 14.383-1.5 2.043-2.68 3.77-3.54 5.266-.94 1.496-1.49 2.43-1.65 2.91v-41.414h-12.17v111.668l11.38 2.117h.79v-70.879l32.38 38.664h15.55l-33.15-39.453c.39-1.808 2.98-5.574 6.76-9.98 3.77-4.485 8.64-9.59 13.67-13.907 5.03-4.328 10.21-7.785 14.37-9.043l-5.03-10.761M1825.68 309.863h9.04v14.61l11.39 2.129h.79v-16.739h22.63v-11.316h-22.63v-40.082c0-7.457 1.65-12.488 4.24-15.789 2.6-3.301 6.29-4.715 10.45-4.715 4.72 0 9.98 1.805 15.32 4.871l3.3-11.16c-6.91-3.149-13.75-4.953-20.11-4.953-7.15 0-13.36 2.199-17.99 7.304-4.64 5.028-7.39 13.047-7.39 24.442v40.082h-9.04v11.316M649.23 0 366.848 830.242l4.019 1.367L653.254 1.367 649.23 0M368.629 417.52c-20.371 15.546-29.914-.118-42.727.918-10.839.859-20.996 18.359-29.382 14.179-16.008-8.144 6.414-36.953 16.152-42.832 8.66-5.195 19.578-9.98 22.195-11.191 12.871-6.016 17.988-15.117 19.61-29.336.41-3.262 0-10.703-.801-14.16-5.867-24.922-49.531-47.559-74.598-30.43-11.808 8.086-22.59 18.535-26.32 37.031-6.746 32.754-30.391 56.836-37.969 88.887-4.609 19.473-8.016 40.019-13.105 59.609-5.164 20.254-10.489 40.313-14.727 58.711-3.867 17.11-12 42.676-17.891 58.25-23.945 62.52-34.765 57.981-34.765 57.981s8.722-17.356 40.429-170.586c1.309-6.27 12.833-73.77 21.25-95.996 3.008-7.969 8.262-24.981 11.719-32.5 10.09-21.953 36.719-55.235 38.477-85.235 1.015-17.343 2.988-31.699 3.398-44.824.254-3.848 1.953-19.492 4.453-26.445 6.504-18.301 59.004-77.344 114.739-77.344v44.746c-55.383 0-107.551 31.035-108.84 34.297-.801 1.465 2.883 22.637 6.633 32.051 7.254 18.222 20.937 34.883 45 36.66 26.824 1.934 43.015-5.859 57.207-5.859l-.137 143.418M128.129 579.91c-2.031-33.504-53.887-79.324-70.137-108.699-7.957-14.453-17.683-39.258-20.195-53.633-6.895-39.98 1.855-64.824 11.601-88.223 17.16-41.132-2.324-56.25 11.094-47.91 16.614 13.535 14.082 45.098 12.864 64.805-.97 15.996-2.043 34.18.378 53.242 4.61 35.664 26.204 73.946 44.641 100.703 21.883 31.914 13.934 64.922 9.754 79.715M138.578 484.746s5.527-26.543-17.89-94.805c-61.25-178.535 55.753-195.449 89.062-237.421 0 0 12.891 18.183-40.176 76.386-19.375 21.27-36.855 68.125-21.629 135.059 22.02 96.914-9.367 120.781-9.367 120.781M22.758 601.797c-2.801 10.547-3.652 19.98-3.035 28.398 2.832 41.953 40.925 58.938 50.418 65.188 0 0 17.129 11.726 19.336 23.57 0 0 17.539-44.148-22.676-69.441-20.41-12.852-34.278-27.91-44.043-47.715M118.832 642.344c2.168-4.258 17.961-27.375-46.707-80.742-64.543-53.301-44.387-91.407-44.387-91.407s-68.894 38.321 10.469 104.532c79.336 66.152 63.078 79.57 63.078 79.57s11.356.547 17.547-11.953M237.582 606.23c.938 2.5 2.285.489 5.117 2.266 3.02 2.852 6.114 7.527 11.016 9.094 3.515 1.082 8.34.574 11.633-.695 2.187-.547.859-6.172-.782-7.618-3.496-2.578-13.82 1.668-13.82-6.062.43-12.688 17.149.398 25.891.039 4.265-30.949-46.66-22.434-39.055 2.976zm-34.805 15.684c11.172-1.465 18.282-36.309 44.121-43.887 19.004-5.547 39.2-2.539 43.684-13.964-8.723-4.629-1.848-19.961 6.922-17.454 7.238 20.364 10.879 99.055-94.727 75.305" style="fill:#fff;fill-opacity:1;fill-rule:nonzero;stroke:none" transform="matrix(.13333 0 0 -.13333 0 110.88)"/></g></svg>