<svg width="120" height="43" xml:space="preserve" xmlns="http://www.w3.org/2000/svg"><g transform="translate(-5.154 -6.287) scale(1.08505)"><rect style="display:inline;fill:#e3a1ff;fill-opacity:1;stroke:#3900a7;stroke-width:.5;stroke-dasharray:none;stroke-opacity:1" width="26.73" height="26.73" x="5" y="12.985" rx="0" ry="0"/><path d="M22.058 36.374h-2.272l-4.667-6.53-1.426 1.216v5.314h-1.949V22.477h1.949v6.787q.484-.57.979-1.131.504-.561.998-1.131l3.983-4.525h2.234l-5.362 6.055z" style="font-weight:500;font-size:19.4677px;font-family:'Open Sans';-inkscape-font-specification:'Open Sans Medium';letter-spacing:0;fill:#3900a7;stroke-width:1.21673" transform="scale(1.1334 .8823)" aria-label="K"/></g><g transform="translate(-5.154 -6.287) scale(1.08505)"><rect style="display:inline;fill:#e3a1ff;fill-opacity:1;stroke:#3900a7;stroke-width:.5;stroke-dasharray:none;stroke-opacity:1" width="26.73" height="26.73" x="32.855" y="6.323" rx="0" ry="0"/><path d="M39.633 29.264V15.366h1.948v13.898z" style="font-weight:500;font-size:19.4677px;font-family:'Open Sans';-inkscape-font-specification:'Open Sans Medium';letter-spacing:0;fill:#3900a7;stroke-width:1.21673" transform="scale(1.1334 .8823)" aria-label="I"/></g><g transform="translate(-5.154 -6.287) scale(1.08505)"><rect style="display:inline;fill:#e3a1ff;fill-opacity:1;stroke:#3900a7;stroke-width:.5;stroke-dasharray:none;stroke-opacity:1" width="26.73" height="26.73" x="60.632" y="18.025" rx="0" ry="0"/><path d="M69.188 41.45h-7.805V27.552h7.805v1.673h-5.856v4.135h5.504v1.654h-5.504v4.753h5.856z" style="font-weight:500;font-size:19.4677px;font-family:'Open Sans';-inkscape-font-specification:'Open Sans Medium';letter-spacing:0;fill:#3900a7;stroke-width:1.21673" transform="scale(1.1334 .8823)" aria-label="E"/></g><g transform="translate(-5.154 -6.287) scale(1.08505)"><rect style="display:inline;fill:#fbed25;fill-opacity:1;stroke:#3900a7;stroke-width:.5;stroke-dasharray:none;stroke-opacity:1" width="26.73" height="26.73" x="88.331" y="7.85" rx="0" ry="0"/><path d="M94.544 30.235h-9.82v-1.388l7.272-10.817h-7.034v-1.692h9.392v1.387l-7.282 10.818h7.472z" style="font-weight:500;font-size:19.4677px;font-family:'Open Sans';-inkscape-font-specification:'Open Sans Medium';letter-spacing:0;fill:#3900a7;stroke-width:1.21673" transform="scale(1.1334 .8823)" aria-label="Z"/></g></svg>